<svg xmlns="http://www.w3.org/2000/svg" width="32" height="32" viewBox="0 0 32 32"><g transform="matrix(3.77953 0 0 3.77953 106.07 -1347.324)"><path fill="#3a90cd" d="m 96.882812,447.25977 -7.498046,4.08984 0,8.52344 7.414062,4.3457 7.498052,-4.3457 0,-8.52344 -7.414068,-4.08984 z" transform="matrix(.26458 0 0 .26458 -49.333 240.005)"/><path fill="#3a90cd" d="m -23.721467,360.48452 1.984245,-1.05979 0,2.25482 -1.984245,1.14998 z"/><path fill="#6fb7e6" d="m -23.721467,360.48452 -1.961693,-1.05979 0,2.25482 1.961693,1.14998 z"/><path fill="#74c1e6" d="m -23.698916,358.34244 1.961694,1.08229 -1.984245,1.05979 -1.961693,-1.05979 z"/><path fill="#eef2fa" d="M-23.045017 361.65701c-.06764-.0451-.157829.0241-.22547.11273-.06764.11274-.06764.22547 0 .24802.06764.0451.180376 0 .22547-.11274.06764-.11273.06764-.22547 0-.24801zM-23.045017 360.59726c-.06764-.0451-.157829 0-.22547.11273-.06764.11274-.06764.22547 0 .24802.06764.0451.180376-.0242.22547-.11274.06764-.11273.06764-.22547 0-.24801zM-22.18819 361.25116c-.06764-.0242-.157829.0242-.22547.13528-.06764.0902-.06764.20292 0 .24802.06764.0242.180376-.0242.248017-.11274.04509-.11273.04509-.22547-.02255-.27056zM-22.18819 360.19137c-.06764-.0242-.157829.0242-.22547.11274-.06764.11273-.06764.22547 0 .27056.06764.0242.180376-.0242.248017-.13528.04509-.0902.04509-.20293-.02255-.24802zM-22.616608 360.98056c-.06764-.0242-.157829.0241-.225469.11273-.06764.11274-.06764.22547 0 .27056.06764.0242.180375-.0242.225469-.13528.06764-.0902.06764-.20292 0-.24801zM-24.375362 360.59726c.06764-.0451.157829 0 .22547.11273.06764.11274.06764.22547 0 .24802-.06764.0451-.180376-.0242-.22547-.11274-.06764-.11273-.06764-.22547 0-.24801zM-25.232196 361.25116c.06764-.0242.157829.0242.22547.13528.06764.0902.06764.20292 0 .24802-.06764.0242-.180376-.0242-.248017-.11274-.04509-.11273-.04509-.22547.02255-.27056zM-24.803779 360.98056c.06764-.0242.157829.0241.22547.11273.06764.11274.06764.22547 0 .27056-.06764.0242-.180376-.0242-.22547-.13528-.06764-.0902-.06764-.20292 0-.24801z"/><path fill="#b2d6f0" d="m -23.473434,359.51492 c 0,0.0902 -0.09019,0.15783 -0.22547,0.15783 -0.157829,0 -0.248017,-0.0676 -0.248017,-0.15783 0,-0.0676 0.09019,-0.13528 0.248017,-0.13528 0.135282,0 0.22547,0.0676 0.22547,0.13528 z"/></g></svg>