<svg xmlns="http://www.w3.org/2000/svg" width="32" height="32" viewBox="0 0 32 32"><g transform="matrix(6.03938 0 0 6.03938 -142.287 -2094.965)"><path fill="#004463" d="m 23.998047,18.746094 -7.996094,4.611328 -6.5136718,3.761719 0,-0.742188 -1.4726562,0 0,1.013672 0,0.0059 0.00977,0 7.976562,4.59961 16.013672,-9.238281 -0.0098,-0.0059 0.0098,0 0,-1.019531 -1.470703,0 0,0.761719 z" transform="matrix(.16558 0 0 .16558 22.895 345.56)"/><path fill="#91ca60" d="m 26.868603,348.39949 -1.32395,0.76378 -1.3224,0.76326 0,0 1.3224,0.76275 2.651518,-1.52963 z"/><path fill="#70bb57" d="m 26.733226,348.70362 -1.934392,1.12277 a 0.11499048,0.11499048 89.920967 0 0 2.75e-4,0.19906 l 0.557798,0.32171 a 0.39545805,0.39545805 179.989 0 0 0.395278,-8e-5 l 1.040277,-0.6005 0.886666,-0.51678 a 0.10131217,0.10131217 89.176351 0 0 -0.0025,-0.17649 l -0.648964,-0.35366 a 0.30025536,0.30025536 179.22804 0 0 -0.294401,0.004 z"/><path fill="#91ca60" d="m 26.736938,349.5441 a 0.52916658,0.32210219 0 0 1 -0.529167,0.3221 0.52916658,0.32210219 0 0 1 -0.529166,-0.3221 0.52916658,0.32210219 0 0 1 0.529166,-0.3221 0.52916658,0.32210219 0 0 1 0.529167,0.3221 z"/><path fill="#004463" style="line-height:normal;text-indent:0;text-align:start;text-decoration-line:none;text-decoration-style:solid;text-decoration-color:#000;text-transform:none;isolation:auto;mix-blend-mode:normal" d="m 26.052092,349.40319 c -0.03871,0.0263 -0.05333,0.077 -0.03773,0.12151 0.01563,0.0446 0.05513,0.0767 0.102141,0.0853 0.04702,0.009 0.09557,-0.01 0.118936,-0.0503 a 0.03172225,0.03172225 0 1 0 -0.05475,-0.0316 c -0.0085,0.0148 -0.02795,0.0242 -0.05258,0.0197 -0.02462,-0.005 -0.04646,-0.0231 -0.05375,-0.0439 -0.0073,-0.0208 -0.0017,-0.0377 0.01365,-0.0482 0.0154,-0.0105 0.0412,-0.0114 0.06389,0.002 a 0.03172225,0.03172225 0 1 0 0.03161,-0.0548 c -0.04164,-0.024 -0.09272,-0.0259 -0.131422,5e-4 z" color="#000" font-family="sans-serif" font-weight="400" overflow="visible" white-space="normal"/><path fill="#004463" style="line-height:normal;text-indent:0;text-align:start;text-decoration-line:none;text-decoration-style:solid;text-decoration-color:#000;text-transform:none;isolation:auto;mix-blend-mode:normal" d="m 26.363773,349.6852 c 0.03871,-0.0264 0.05334,-0.077 0.0377,-0.12153 -0.01563,-0.0446 -0.05512,-0.0767 -0.102141,-0.0853 -0.04701,-0.009 -0.09527,0.009 -0.118641,0.0498 a 0.03172225,0.03172225 0 1 0 0.05475,0.0316 c 0.0085,-0.0148 0.02765,-0.0237 0.05229,-0.0192 0.02462,0.005 0.04696,0.0234 0.05426,0.0442 0.0073,0.0208 0.0013,0.0375 -0.01414,0.0479 -0.0154,0.0105 -0.0412,0.0114 -0.06389,-0.002 a 0.03172225,0.03172225 0 1 0 -0.03161,0.0548 c 0.04164,0.024 0.09272,0.0259 0.131421,-5e-4 z" color="#000" font-family="sans-serif" font-weight="400" overflow="visible" white-space="normal"/><path fill="#004463" fill-rule="evenodd" style="line-height:normal;text-indent:0;text-align:start;text-decoration-line:none;text-decoration-style:solid;text-decoration-color:#000;text-transform:none;isolation:auto;mix-blend-mode:normal" d="M25.957355 349.39986c-.0088.0153-.0033.0349.01208.0435l.06387.0369.0319-.0553-.06387-.0369c-.01536-.009-.03527-.004-.04398.0118zM26.338403 349.63094c-.0088.0153-.0032.0239.01225.0325l.06387.0369c.03684.0213.06874-.034.0319-.0553l-.06387-.0369c-.01536-.009-.03544.007-.04415.0228z" color="#000" font-family="sans-serif" font-weight="400" overflow="visible" white-space="normal"/></g></svg>