<svg xmlns="http://www.w3.org/2000/svg" width="32" height="32" viewBox="0 0 32 32"><g transform="translate(0 -1020.362)"><path fill="#99b5ce" d="m 17.4707,1044.7453 -4.847656,2.7949 0,0.5759 2.1543,1.2461 4.845702,-2.7949 0,-0.5778 z"/><path fill="#c9d6e5" d="m 19.62362,1045.9901 -4.846155,2.7953 0,0.5768 4.846155,-2.7954 z"/><path fill="#b0c4da" d="m 12.623622,1047.5434 0,0.5768 2.153843,1.242 0,-0.5768 z"/><path fill="#f8b545" d="m 15,1037.2805 0,9.5117 0.999998,0.5762 0.999999,-0.5762 0,-9.5117 -0.999999,0.5449 z"/><path fill="#fecb5b" d="m 16.999997,1037.2807 -1.000002,0.5451 0,9.5422 1.000002,-0.5764 z"/><path fill="#003a54" d="m 20.406247,1022.7174 a 0.59364028,0.59364025 0 0 0 -0.2832,0.072 l -10.4687503,5.709 A 1.2540838,1.2540837 0 0 0 9,1029.6001 l 0,10.4376 a 0.57756973,0.5775697 0 0 0 0.2089701,0.4433 l -0.00195,0 1.0234391,0.7734 0,-0 a 0.57756973,0.5775697 0 0 0 0.634764,0.041 l 10.533199,-6.0763 a 1.2016361,1.2016361 0 0 0 0.601565,-1.041 l 0,-10.1113 a 0.59364028,0.59364025 0 0 0 -0.234369,-0.4727 l -0.02343,-0.019 -0.953128,-0.7188 a 0.59364028,0.59364025 0 0 0 -0.38281,-0.1387 z"/><path fill="#004463" d="m 10.653562,1029.2545 10.468531,-5.7101 a 0.59364028,0.59364025 0 0 1 0.877905,0.5211 l 0,10.1101 a 1.2016362,1.2016361 0 0 1 -0.601149,1.0409 l -10.532654,6.0765 a 0.57756973,0.5775697 0 0 1 -0.8661963,-0.5003 l 0,-10.4373 a 1.2540839,1.2540838 0 0 1 0.6535633,-1.1009 z"/></g></svg>